<?xml version="1.0" standalone="no"?>
<!DOCTYPE svg PUBLIC "-//W3C//DTD SVG 20010904//EN"
 "http://www.w3.org/TR/2001/REC-SVG-20010904/DTD/svg10.dtd">
<svg version="1.0" xmlns="http://www.w3.org/2000/svg"
 width="260.000000pt" height="260.000000pt" viewBox="0 0 260.000000 260.000000"
 preserveAspectRatio="xMidYMid meet">
<metadata>
Created by potrace 1.14, written by Peter Selinger 2001-2017
</metadata>
<g transform="translate(0.000000,260.000000) scale(0.100000,-0.100000)"
fill="#000000" stroke="none">
<path d="M257 2589 c-106 -25 -201 -107 -234 -202 -17 -49 -18 -116 -18 -1102
l0 -1050 27 -52 c37 -70 89 -120 157 -152 l56 -26 1060 0 1060 0 52 27 c70 37
120 89 152 157 l26 56 0 1055 0 1055 -30 59 c-36 70 -107 137 -173 163 -44 17
-102 18 -1072 20 -576 1 -1041 -3 -1063 -8z"/>
</g>
</svg>
